<?xml version="1.0" standalone="no"?>
<!DOCTYPE svg PUBLIC "-//W3C//DTD SVG 20010904//EN"
 "http://www.w3.org/TR/2001/REC-SVG-20010904/DTD/svg10.dtd">
<svg version="1.0" xmlns="http://www.w3.org/2000/svg"
 width="1024.000000pt" height="919.000000pt" viewBox="0 0 1024.000000 919.000000"
 preserveAspectRatio="xMidYMid meet">

<g transform="translate(0.000000,919.000000) scale(0.100000,-0.100000)"
fill="#000000" stroke="none">
<path d="M5028 7310 c-261 -24 -550 -94 -813 -200 -148 -59 -399 -196 -508
-278 -34 -26 -88 -63 -121 -82 -66 -40 -126 -115 -151 -190 -14 -41 -16 -93
-13 -337 l3 -288 27 -50 c14 -27 40 -63 57 -79 l31 -30 0 -597 c0 -375 -4
-627 -11 -676 -6 -43 -37 -159 -70 -258 -90 -272 -106 -403 -74 -591 45 -254
203 -478 465 -657 187 -128 1851 -1230 1904 -1261 336 -196 672 -238 1012
-125 112 37 257 116 349 189 179 142 348 422 402 666 22 97 25 396 5 489 -55
253 -170 469 -350 653 -110 112 -251 215 -1002 733 -266 183 -301 213 -343
298 -55 109 -58 153 -55 659 3 440 4 454 23 468 52 38 96 90 122 142 l28 57 0
290 0 290 -28 57 c-35 70 -111 141 -175 162 -41 13 -158 16 -859 17 -446 1
-823 4 -837 6 -21 4 -14 11 52 43 196 97 332 148 537 200 244 62 346 75 620
75 322 0 499 -27 772 -119 396 -133 717 -337 1026 -655 115 -118 119 -121 162
-121 81 0 120 83 75 158 -35 57 -276 296 -383 380 -375 293 -830 485 -1302
547 -145 19 -443 27 -577 15z m-1164 -791 l26 -31 0 -230 0 -230 -34 -34 c-19
-19 -39 -34 -45 -34 -8 0 -11 66 -11 218 0 226 -7 277 -40 307 -23 20 -26 51
-7 58 6 3 28 6 49 6 29 1 42 -5 62 -30z m348 2 l33 -29 3 -223 c2 -159 0 -231
-9 -252 -12 -29 -62 -59 -83 -51 -8 3 -10 80 -8 236 3 216 1 235 -18 280 -11
27 -18 53 -15 58 13 20 65 10 97 -19z m365 5 l28 -24 0 -242 0 -242 -33 -29
c-62 -55 -62 -55 -62 209 0 188 -3 242 -15 262 -38 66 -40 71 -24 81 27 17 77
10 106 -15z m350 0 l28 -24 3 -219 c4 -246 -2 -284 -49 -308 -16 -9 -35 -13
-41 -9 -8 5 -9 66 -5 213 4 125 2 226 -4 256 -24 120 -25 115 9 115 18 0 43
-10 59 -24z m345 13 c38 -21 44 -61 42 -297 -1 -222 -2 -224 -25 -247 -13 -13
-34 -26 -46 -30 l-23 -6 0 246 c0 226 -2 249 -20 285 -11 22 -20 44 -20 50 0
13 66 13 92 -1z m364 -7 c41 -33 44 -53 44 -277 0 -243 -5 -265 -63 -284 -42
-14 -76 -3 -106 35 -20 25 -21 37 -21 251 0 275 5 291 90 292 19 0 45 -7 56
-17z m-1594 -971 c90 -32 103 -33 183 -5 l76 26 52 -20 c88 -35 110 -36 191
-8 l75 26 58 -19 c92 -31 116 -33 164 -16 94 35 98 35 152 16 80 -29 114 -32
160 -15 92 33 102 35 148 19 78 -28 127 -36 169 -26 l40 9 -1 -172 c0 -164 -1
-170 -17 -146 -108 157 -279 184 -412 64 -79 -71 -106 -169 -75 -268 36 -115
133 -186 255 -186 100 1 181 48 228 134 17 31 17 30 23 -119 4 -82 10 -160 14
-172 9 -27 8 -27 -69 -9 -51 12 -67 12 -113 0 -70 -18 -112 -18 -181 2 -51 15
-60 15 -113 0 -72 -20 -120 -20 -183 -1 -43 13 -55 13 -106 0 -72 -19 -114
-19 -185 -1 -48 13 -61 13 -103 1 -60 -19 -104 -19 -166 0 -44 13 -55 13 -111
-2 -56 -15 -71 -15 -135 -3 -57 11 -84 11 -129 2 -31 -6 -73 -9 -93 -6 l-38 7
0 156 0 156 21 -30 c24 -33 98 -88 142 -104 44 -17 137 -13 183 8 91 41 164
151 164 246 -1 91 -65 190 -155 238 -56 30 -164 30 -221 0 -44 -23 -90 -64
-116 -103 -16 -24 -17 -18 -17 133 l-1 157 30 0 c17 0 45 7 63 17 29 15 71 30
89 32 4 1 31 -8 60 -18z m51 -362 c64 -33 77 -116 28 -171 -25 -28 -36 -33
-76 -33 -40 0 -51 5 -76 33 -31 35 -38 81 -18 125 22 48 93 71 142 46z m1216
-3 c56 -30 70 -121 24 -168 -22 -23 -35 -28 -74 -28 -60 0 -97 29 -106 82 -14
94 72 157 156 114z m314 -734 c45 -66 130 -147 210 -200 20 -13 37 -27 37 -31
0 -3 -36 -39 -80 -79 -82 -75 -277 -288 -411 -447 -150 -179 -397 -529 -474
-670 -12 -22 -49 -90 -83 -151 -34 -61 -62 -116 -62 -121 0 -6 -6 -16 -14 -22
-11 -10 -47 10 -180 100 l-165 112 39 76 c103 202 134 317 134 496 1 188 -36
306 -139 450 -125 175 -304 289 -563 361 -97 26 -103 30 -97 51 3 13 8 44 11
71 3 26 7 53 10 60 3 9 190 12 892 12 l888 0 47 -68z m599 -577 c25 -56 -37
-125 -114 -125 -31 0 -41 5 -50 25 -17 38 0 76 47 102 56 31 102 30 117 -2z
m-464 -67 c7 -7 12 -29 12 -49 0 -29 -7 -43 -31 -63 -55 -46 -104 -48 -129 -3
-13 24 -13 30 0 54 32 56 117 92 148 61z m748 -34 c35 -25 64 -48 64 -52 0 -4
-21 -23 -47 -42 -87 -65 -163 -146 -163 -173 0 -34 25 -57 61 -57 25 0 50 19
139 106 l109 106 128 -95 c70 -52 138 -106 151 -120 l23 -24 -43 -11 c-59 -15
-192 -81 -275 -136 -266 -176 -519 -501 -611 -786 -45 -139 -57 -226 -57 -416
l0 -181 -80 50 c-165 103 -542 355 -550 366 -9 15 111 261 202 415 185 312
445 650 745 969 66 70 125 127 130 127 6 0 39 -20 74 -46z m-514 -138 c25 -38
-4 -98 -58 -121 -64 -27 -113 20 -85 81 21 47 120 75 143 40z m-542 -197 c25
-46 -22 -120 -90 -139 -40 -11 -67 1 -76 35 -10 39 5 65 54 96 55 35 97 38
112 8z m318 -107 c28 -36 8 -73 -77 -141 -35 -28 -73 -51 -85 -51 -35 1 -56
24 -56 62 0 39 11 51 104 117 62 43 88 46 114 13z m-560 -255 c18 -37 1 -82
-42 -108 -60 -37 -106 -20 -108 40 -1 34 14 56 57 83 41 25 77 20 93 -15z
m286 -130 c13 -36 -6 -72 -53 -104 -40 -27 -77 -29 -103 -6 -52 47 28 147 112
141 28 -2 37 -8 44 -31z m-451 -155 c22 -19 22 -50 0 -74 -41 -45 -117 0 -92
55 12 26 47 48 64 39 6 -3 18 -12 28 -20z m259 -129 c25 -22 23 -46 -8 -77
-31 -30 -46 -32 -68 -10 -54 54 19 139 76 87z"/>
<path d="M4566 5356 c-54 -20 -106 -65 -140 -120 -23 -37 -30 -61 -34 -120 -4
-63 -1 -81 19 -122 50 -101 136 -154 248 -154 165 0 294 170 252 328 -15 55
-85 140 -140 171 -54 29 -149 38 -205 17z m167 -186 c52 -58 28 -145 -47 -170
-45 -15 -81 -4 -111 32 -27 32 -34 93 -15 128 31 57 126 63 173 10z"/>
<path d="M6129 3285 c-35 -36 -70 -77 -77 -91 -12 -24 -12 -29 6 -53 35 -48
57 -41 143 47 84 85 96 114 61 145 -35 32 -65 21 -133 -48z"/>
<path d="M5910 2967 c-49 -47 -96 -100 -110 -126 -15 -29 -5 -67 21 -82 32
-17 72 5 135 74 62 69 74 99 53 136 -22 39 -57 38 -99 -2z"/>
<path d="M5666 2589 c-20 -17 -52 -58 -72 -91 -32 -52 -35 -63 -25 -84 14 -31
48 -44 81 -32 29 10 120 150 120 185 0 27 -25 53 -50 53 -11 0 -35 -14 -54
-31z"/>
<path d="M6216 6629 c-21 -16 -26 -29 -26 -64 0 -36 5 -48 27 -65 49 -38 116
-9 129 57 5 27 1 37 -24 63 -36 35 -69 38 -106 9z"/>
<path d="M6525 6275 c-69 -68 8 -175 93 -131 34 17 42 34 42 81 0 67 -87 99
-135 50z"/>
<path d="M3166 6237 c-48 -50 -172 -234 -244 -363 -91 -160 -211 -463 -214
-535 -3 -79 71 -130 137 -95 34 18 56 59 85 151 21 69 90 225 151 345 52 103
111 198 222 359 40 58 45 86 22 131 -18 36 -43 50 -86 50 -25 0 -42 -10 -73
-43z"/>
<path d="M7383 6035 c-52 -37 -9 -118 50 -96 14 6 31 20 37 32 10 18 9 26 -7
48 -24 32 -51 37 -80 16z"/>
<path d="M6279 5862 c-34 -30 -34 -31 -34 -119 0 -78 3 -95 32 -156 119 -251
428 -338 670 -188 92 57 178 189 192 294 15 115 -20 187 -90 187 -50 0 -75
-35 -82 -114 -14 -149 -122 -244 -277 -245 -78 -1 -137 23 -193 77 -56 53 -78
103 -84 188 -6 81 -14 92 -66 101 -28 4 -40 0 -68 -25z"/>
<path d="M7549 5741 c-42 -43 -39 -83 20 -210 91 -199 159 -436 182 -640 17
-139 38 -171 114 -171 27 0 44 8 67 31 l31 30 -6 97 c-8 114 -36 270 -72 391
-59 197 -165 438 -211 479 -37 32 -88 30 -125 -7z"/>
<path d="M6305 5098 c-25 -19 -27 -26 -23 -74 8 -92 68 -127 108 -61 28 46 26
102 -5 132 -30 31 -44 31 -80 3z"/>
<path d="M2661 5041 c-25 -25 -26 -39 -5 -69 22 -31 69 -30 90 4 16 24 16 27
-3 52 -25 34 -56 39 -82 13z"/>
<path d="M6147 4938 c-56 -20 -43 -106 19 -119 71 -14 140 42 114 91 -20 37
-77 49 -133 28z"/>
<path d="M6440 4939 c-47 -19 -53 -57 -15 -94 32 -33 105 -35 135 -5 20 20 26
56 12 76 -21 32 -83 42 -132 23z"/>
<path d="M7244 4928 c-38 -18 -46 -48 -42 -161 l3 -106 -25 17 c-71 46 -135
81 -160 87 -56 12 -107 -40 -96 -99 8 -43 26 -58 119 -101 l77 -36 -89 -44
c-71 -36 -91 -51 -99 -75 -14 -38 -2 -79 30 -103 36 -27 79 -17 164 38 38 25
71 45 74 45 3 0 4 -47 2 -105 -3 -100 -2 -106 22 -130 34 -34 79 -33 113 1 25
25 26 28 21 134 l-6 108 47 -33 c64 -46 125 -75 156 -75 34 0 85 50 85 84 0
41 -53 92 -130 123 -39 15 -70 30 -70 33 0 3 42 25 93 50 80 39 93 49 101 77
16 58 -24 113 -82 113 -10 0 -57 -22 -105 -50 -48 -27 -88 -50 -90 -50 -1 0 0
43 1 95 5 118 -1 141 -38 160 -33 17 -46 18 -76 3z"/>
<path d="M6305 4826 c-36 -36 -36 -116 0 -151 31 -32 40 -31 76 4 21 22 29 39
29 66 0 37 -24 95 -39 95 -5 0 -16 3 -25 6 -9 3 -26 -5 -41 -20z"/>
<path d="M3081 4796 c-33 -35 -31 -93 4 -123 30 -27 55 -29 94 -8 32 16 41 33
41 76 0 69 -92 105 -139 55z"/>
<path d="M2590 4422 c-58 -28 -60 -40 -60 -329 l0 -261 25 -30 c32 -39 74 -48
114 -27 57 29 61 48 61 324 0 137 -4 261 -10 275 -19 50 -81 73 -130 48z"/>
<path d="M7485 3925 c-14 -13 -25 -36 -25 -50 0 -33 42 -75 75 -75 36 0 75 42
75 80 0 65 -77 93 -125 45z"/>
<path d="M7682 3930 c-28 -27 -29 -79 -2 -108 40 -43 114 -17 126 45 13 65
-74 109 -124 63z"/>
<path d="M2967 3658 c-41 -32 -39 -115 3 -138 44 -23 95 -10 115 31 20 38 19
62 -6 93 -16 20 -29 26 -58 26 -20 0 -45 -6 -54 -12z"/>
<path d="M3007 2802 c-41 -25 -79 -110 -85 -191 -18 -257 197 -481 461 -481
178 1 377 139 377 263 0 35 -38 76 -77 83 -30 6 -38 1 -90 -51 -74 -74 -128
-99 -213 -99 -195 1 -329 195 -251 366 24 53 18 85 -21 112 -29 21 -66 20
-101 -2z"/>
<path d="M4229 2321 c-19 -15 -23 -28 -22 -70 1 -91 48 -127 98 -76 20 19 25
34 25 73 0 79 -49 115 -101 73z"/>
<path d="M4388 2171 c-83 -18 -91 -95 -13 -121 63 -21 125 9 125 60 0 46 -52
74 -112 61z"/>
<path d="M4050 2150 c-63 -63 34 -140 119 -95 76 39 43 115 -49 115 -37 0 -55
-5 -70 -20z"/>
<path d="M4242 2069 c-29 -11 -45 -54 -39 -106 6 -55 21 -73 63 -73 58 0 82
68 50 144 -15 36 -39 48 -74 35z"/>
<path d="M4800 1970 c-13 -13 -20 -33 -20 -60 0 -53 27 -80 79 -80 48 0 81 35
81 85 0 66 -93 102 -140 55z"/>
</g>
</svg>
